<svg xmlns="http://www.w3.org/2000/svg" width="960" height="520" viewBox="0 0 960 520">
<rect width="100%" height="100%" fill="#ffffff"/>
<text x="480.0" y="34" text-anchor="middle" font-family="Arial" font-size="24" fill="#16232a">Logistic Regression — top standardized coefficients</text>
<text x="178" y="107.9" text-anchor="end" font-family="Arial" font-size="13" fill="#27343b">log_impressions_90d</text>
<rect x="190" y="70.0" width="730.0" height="58.3" fill="#2F9E44" rx="4"/>
<text x="928.0" y="107.9" font-family="Arial" font-size="13" fill="#27343b">1.51</text>
<text x="178" y="176.2" text-anchor="end" font-family="Arial" font-size="13" fill="#27343b">impression_tier_low</text>
<rect x="190" y="138.3" width="399.9" height="58.3" fill="#2F9E44" rx="4"/>
<text x="597.9" y="176.2" font-family="Arial" font-size="13" fill="#27343b">0.824</text>
<text x="178" y="244.6" text-anchor="end" font-family="Arial" font-size="13" fill="#27343b">position_tier_top_3</text>
<rect x="190" y="206.7" width="396.6" height="58.3" fill="#2F9E44" rx="4"/>
<text x="594.6" y="244.6" font-family="Arial" font-size="13" fill="#27343b">0.818</text>
<text x="178" y="312.9" text-anchor="end" font-family="Arial" font-size="13" fill="#27343b">impression_tier_excellent</text>
<rect x="190" y="275.0" width="318.4" height="58.3" fill="#2F9E44" rx="4"/>
<text x="516.4" y="312.9" font-family="Arial" font-size="13" fill="#27343b">0.656</text>
<text x="178" y="381.3" text-anchor="end" font-family="Arial" font-size="13" fill="#27343b">word_count_tier_1000-2000</text>
<rect x="190" y="343.3" width="305.1" height="58.3" fill="#2F9E44" rx="4"/>
<text x="503.1" y="381.3" font-family="Arial" font-size="13" fill="#27343b">0.629</text>
<text x="178" y="449.6" text-anchor="end" font-family="Arial" font-size="13" fill="#27343b">log_clicks_90d</text>
<rect x="190" y="411.7" width="277.5" height="58.3" fill="#2F9E44" rx="4"/>
<text x="475.5" y="449.6" font-family="Arial" font-size="13" fill="#27343b">0.572</text>
</svg>