<svg xmlns="http://www.w3.org/2000/svg" width="960" height="520" viewBox="0 0 960 520">
<rect width="100%" height="100%" fill="#ffffff"/>
<text x="480.0" y="34" text-anchor="middle" font-family="Arial" font-size="24" fill="#16232a">Random Forest — top 8 feature importances</text>
<text x="178" y="96.8" text-anchor="end" font-family="Arial" font-size="13" fill="#27343b">days_with_impressions</text>
<rect x="190" y="70.0" width="127.9" height="41.2" fill="#2F9E44" rx="4"/>
<text x="325.9" y="96.8" font-family="Arial" font-size="13" fill="#27343b">0.175</text>
<text x="178" y="148.1" text-anchor="end" font-family="Arial" font-size="13" fill="#27343b">log_impressions_90d</text>
<rect x="190" y="121.2" width="92.2" height="41.2" fill="#2F9E44" rx="4"/>
<text x="290.2" y="148.1" font-family="Arial" font-size="13" fill="#27343b">0.126</text>
<text x="178" y="199.3" text-anchor="end" font-family="Arial" font-size="13" fill="#27343b">avg_position</text>
<rect x="190" y="172.5" width="73.7" height="41.2" fill="#2F9E44" rx="4"/>
<text x="271.7" y="199.3" font-family="Arial" font-size="13" fill="#27343b">0.101</text>
<text x="178" y="250.6" text-anchor="end" font-family="Arial" font-size="13" fill="#27343b">content_age_days</text>
<rect x="190" y="223.8" width="67.7" height="41.2" fill="#2F9E44" rx="4"/>
<text x="265.7" y="250.6" font-family="Arial" font-size="13" fill="#27343b">0.0927</text>
<text x="178" y="301.8" text-anchor="end" font-family="Arial" font-size="13" fill="#27343b">word_count</text>
<rect x="190" y="275.0" width="38.3" height="41.2" fill="#2F9E44" rx="4"/>
<text x="236.3" y="301.8" font-family="Arial" font-size="13" fill="#27343b">0.0525</text>
<text x="178" y="353.1" text-anchor="end" font-family="Arial" font-size="13" fill="#27343b">char_count</text>
<rect x="190" y="326.2" width="31.3" height="41.2" fill="#2F9E44" rx="4"/>
<text x="229.3" y="353.1" font-family="Arial" font-size="13" fill="#27343b">0.0429</text>
<text x="178" y="404.3" text-anchor="end" font-family="Arial" font-size="13" fill="#27343b">position_tier_top_3</text>
<rect x="190" y="377.5" width="24.2" height="41.2" fill="#2F9E44" rx="4"/>
<text x="222.2" y="404.3" font-family="Arial" font-size="13" fill="#27343b">0.0331</text>
<text x="178" y="455.6" text-anchor="end" font-family="Arial" font-size="13" fill="#27343b">ctr</text>
<rect x="190" y="428.8" width="21.3" height="41.2" fill="#2F9E44" rx="4"/>
<text x="219.3" y="455.6" font-family="Arial" font-size="13" fill="#27343b">0.0291</text>
</svg>